<svg width="62" height="62" viewBox="0 0 62 62" fill="none" xmlns="http://www.w3.org/2000/svg">
<path fill-rule="evenodd" clip-rule="evenodd" d="M31.115 44.5C32.0458 44.5014 32.9642 44.7141 33.8008 45.1221C34.6375 45.53 35.3706 46.1225 35.945 46.855C35.3763 47.5955 34.6449 48.1954 33.8074 48.6082C32.9699 49.021 32.0487 49.2357 31.115 49.2357C30.1813 49.2357 29.2601 49.021 28.4226 48.6082C27.5851 48.1954 26.8537 47.5955 26.285 46.855C26.8564 46.1192 27.5889 45.5243 28.4262 45.116C29.2636 44.7077 30.1834 44.497 31.115 44.5ZM37.25 43C37.2431 43.3267 37.213 43.6525 37.16 43.975C35.5156 42.4516 33.3566 41.6053 31.115 41.6053C28.8734 41.6053 26.7144 42.4516 25.07 43.975C25.0164 43.6627 24.9863 43.3468 24.98 43.03C24.98 41.4029 25.6264 39.8424 26.7769 38.6919C27.9275 37.5414 29.4879 36.895 31.115 36.895C32.7421 36.895 34.3026 37.5414 35.4531 38.6919C36.6037 39.8424 37.25 41.4029 37.25 43.03V43ZM24.47 19.795H37.745L31.115 32.5L24.47 19.795ZM44.375 13.15C44.4535 13.2001 44.5287 13.2552 44.6 13.315L47.765 16.465C48.1153 16.8083 48.3421 17.2579 48.41 17.7436C48.4778 18.2294 48.3829 18.7239 48.14 19.15L37.925 37.3C36.7222 35.8652 35.0934 34.8511 33.275 34.405L44.375 13.15ZM17.855 13.15L28.955 34.405C27.1341 34.8549 25.5015 35.868 24.29 37.3L14.09 19.15C13.8453 18.7255 13.7479 18.2319 13.813 17.7462C13.8781 17.2606 14.1021 16.8101 14.45 16.465L17.615 13.315C17.6879 13.2544 17.7686 13.204 17.855 13.165V13.15ZM20.855 12.805H41.405L39.215 16.99H23.015L20.855 12.805ZM18.845 10C17.6435 10.0029 16.491 10.4768 15.635 11.32L12.47 14.5C11.6961 15.2721 11.1941 16.2749 11.0399 17.3571C10.8857 18.4394 11.0875 19.5425 11.615 20.5L22.655 40.12C22.3121 41.0422 22.1294 42.0162 22.115 43C22.0608 44.338 22.3059 45.6713 22.8323 46.9025C23.3588 48.1338 24.1533 49.2321 25.1581 50.1173C26.1629 51.0026 27.3525 51.6524 28.6403 52.0195C29.9281 52.3866 31.2816 52.4617 32.6021 52.2394C33.9227 52.017 35.1769 51.5028 36.2735 50.7341C37.37 49.9655 38.2812 48.9619 38.9407 47.7964C39.6001 46.631 39.9912 45.333 40.0854 43.9972C40.1795 42.6614 39.9744 41.3215 39.485 40.075L50.615 20.5C51.1487 19.5463 51.3569 18.4445 51.208 17.3618C51.0591 16.279 50.5613 15.2743 49.79 14.5L46.58 11.32C46.1608 10.9002 45.6627 10.5675 45.1143 10.341C44.566 10.1144 43.9783 9.99856 43.385 10H18.845Z" fill="#FFA800"/>
</svg>
