<svg width="35" height="42" viewBox="0 0 35 42" fill="none" xmlns="http://www.w3.org/2000/svg">
<g clip-path="url(#clip0_14_432)">
<path d="M6.27243 6.56563H28.7445C29.1648 6.56336 29.5814 6.64517 29.9701 6.80633C30.3589 6.96749 30.712 7.20479 31.0093 7.50452C31.3064 7.80424 31.5418 8.16043 31.7016 8.55247C31.8614 8.94451 31.9425 9.36462 31.9402 9.78849V35.5028C31.9425 35.9266 31.8614 36.3467 31.7016 36.7388C31.5418 37.1308 31.3064 37.487 31.0093 37.7867C30.712 38.0865 30.3589 38.3238 29.9701 38.4849C29.5814 38.6461 29.1648 38.7279 28.7445 38.7256H6.27243C5.8515 38.7302 5.4339 38.65 5.04412 38.4897C4.65434 38.3293 4.30023 38.0921 4.00257 37.7919C3.70491 37.4917 3.46969 37.1346 3.3107 36.7415C3.15171 36.3484 3.07216 35.9273 3.07671 35.5028V9.78849C3.07216 9.36398 3.15171 8.94283 3.3107 8.54975C3.46969 8.15666 3.70491 7.79954 4.00257 7.49936C4.30023 7.19917 4.65434 6.96195 5.04412 6.80161C5.4339 6.64127 5.8515 6.56104 6.27243 6.56563ZM6.27243 3.34277C5.44057 3.34949 4.6182 3.52167 3.85244 3.84946C3.08667 4.17724 2.39257 4.65418 1.80989 5.25296C1.22721 5.85173 0.767406 6.56057 0.456828 7.33886C0.14625 8.11715 -0.00900063 8.94959 -2.89463e-05 9.78849V35.5028C-0.000319191 37.1917 0.656706 38.8133 1.82972 40.0187C3.00274 41.2241 4.59802 41.917 6.27243 41.9485H28.7445C30.4189 41.917 32.0142 41.2241 33.1872 40.0187C34.3602 38.8133 35.0173 37.1917 35.017 35.5028V9.78849C35.0259 8.94959 34.8707 8.11715 34.5601 7.33886C34.2495 6.56057 33.7897 5.85173 33.2071 5.25296C32.6244 4.65418 31.9303 4.17724 31.1645 3.84946C30.3987 3.52167 29.5764 3.34949 28.7445 3.34277H6.27243Z" fill="#4583DA"/>
<path d="M9.45109 0C9.23741 0.00633584 9.02722 0.0563119 8.83324 0.146906C8.63926 0.2375 8.46551 0.366831 8.3225 0.527076C8.1795 0.687322 8.0702 0.875153 8.00123 1.07921C7.93226 1.28327 7.90504 1.49932 7.92122 1.71429V9.78857C7.92122 10.2159 8.08957 10.6258 8.38923 10.928C8.68888 11.2302 9.09531 11.4 9.51909 11.4C9.94287 11.4 10.3493 11.2302 10.6489 10.928C10.9486 10.6258 11.117 10.2159 11.117 9.78857V1.68C11.1083 1.23718 10.93 0.814946 10.6194 0.501766C10.3089 0.188586 9.89018 0.00877121 9.45109 0Z" fill="#4583DA"/>
<path d="M7.80232 8.1084C7.59249 8.11628 7.38625 8.16576 7.19538 8.25402C7.0045 8.34228 6.83274 8.4676 6.68989 8.6228C6.54704 8.77801 6.4359 8.96007 6.36282 9.15859C6.28974 9.35712 6.25614 9.56821 6.26396 9.77983C6.27177 9.99144 6.32084 10.1994 6.40835 10.3919C6.49587 10.5844 6.62013 10.7576 6.77403 10.9017C6.92793 11.0458 7.10846 11.1579 7.30531 11.2316C7.50216 11.3053 7.71148 11.3391 7.92131 11.3313H11.117C11.5408 11.3313 11.9472 11.1615 12.2469 10.8593C12.5466 10.5571 12.7149 10.1472 12.7149 9.71983C12.7149 9.29245 12.5466 8.88258 12.2469 8.58038C11.9472 8.27817 11.5408 8.1084 11.117 8.1084H7.80232Z" fill="#4583DA"/>
<path d="M25.4299 0C25.2162 0.00633584 25.006 0.0563119 24.812 0.146906C24.618 0.2375 24.4443 0.366831 24.3013 0.527076C24.1583 0.687322 24.049 0.875153 23.98 1.07921C23.911 1.28327 23.8838 1.49932 23.9 1.71429V9.78857C23.9 10.2159 24.0683 10.6258 24.368 10.928C24.6676 11.2302 25.0741 11.4 25.4978 11.4C25.9216 11.4 26.328 11.2302 26.6277 10.928C26.9274 10.6258 27.0957 10.2159 27.0957 9.78857V1.68C27.087 1.23718 26.9087 0.814946 26.5982 0.501766C26.2876 0.188586 25.8689 0.00877121 25.4299 0Z" fill="#4583DA"/>
<path d="M23.7639 8.1084C23.3401 8.12658 22.9409 8.3138 22.654 8.62886C22.3671 8.94392 22.216 9.36102 22.2341 9.7884C22.2521 10.2158 22.4377 10.6184 22.7501 10.9078C23.0625 11.1971 23.4761 11.3494 23.8999 11.3313H27.0956C27.5194 11.3313 27.9258 11.1615 28.2255 10.8593C28.5252 10.5571 28.6935 10.1472 28.6935 9.71983C28.6935 9.29245 28.5252 8.88258 28.2255 8.58038C27.9258 8.27817 27.5194 8.1084 27.0956 8.1084H23.6959H23.7639Z" fill="#4583DA"/>
<path d="M33.4701 14.5547H1.52979V17.7775H33.4701V14.5547Z" fill="#4583DA"/>
<path d="M17.4745 3.43397e-08C17.0237 3.43397e-08 16.5913 0.180612 16.2725 0.502103C15.9537 0.823594 15.7747 1.25963 15.7747 1.71429V8.10857C15.7747 8.56323 15.9537 8.99926 16.2725 9.32076C16.5913 9.64225 17.0237 9.82286 17.4745 9.82286C17.9253 9.82286 18.3577 9.64225 18.6765 9.32076C18.9953 8.99926 19.1744 8.56323 19.1744 8.10857V1.68C19.1655 1.23131 18.9825 0.804034 18.6646 0.489921C18.3468 0.175808 17.9195 -8.97301e-05 17.4745 3.43397e-08Z" fill="#4583DA"/>
<path d="M11.1171 15.3252C10.6663 15.3252 10.2339 15.5058 9.91511 15.8273C9.59633 16.1488 9.41724 16.5848 9.41724 17.0395V38.8109C9.41724 39.2383 9.58558 39.6482 9.88524 39.9504C10.1849 40.2526 10.5913 40.4223 11.0151 40.4223C11.4389 40.4223 11.8453 40.2526 12.145 39.9504C12.4446 39.6482 12.613 39.2383 12.613 38.8109V17.0052C12.6343 16.7937 12.6115 16.58 12.5462 16.3779C12.4808 16.1758 12.3743 15.9897 12.2335 15.8315C12.0927 15.6733 11.9206 15.5466 11.7283 15.4594C11.5361 15.3722 11.3279 15.3265 11.1171 15.3252Z" fill="#4583DA"/>
<path d="M17.3725 22.7138C17.1414 22.6802 16.9057 22.698 16.6822 22.766C16.4586 22.8341 16.2526 22.9507 16.0785 23.1077C15.9045 23.2647 15.7667 23.4583 15.6749 23.6748C15.583 23.8914 15.5393 24.1256 15.5469 24.3609C15.5545 24.5963 15.6131 24.8271 15.7187 25.0372C15.8242 25.2473 15.9742 25.4314 16.1579 25.5768C16.3417 25.7221 16.5548 25.825 16.7823 25.8783C17.0097 25.9316 17.246 25.934 17.4745 25.8853H19.1743C19.5428 25.8181 19.8762 25.6225 20.1163 25.3327C20.3564 25.0428 20.4879 24.6772 20.4879 24.2995C20.4879 23.9219 20.3564 23.5563 20.1163 23.2664C19.8762 22.9766 19.5428 22.781 19.1743 22.7138H17.3725Z" fill="#4583DA"/>
<path d="M25.2939 22.7146C23.2541 22.7146 23.3901 25.9203 25.5489 25.9203H27.0958C27.3183 25.9436 27.5432 25.9194 27.7559 25.8495C27.9686 25.7795 28.1643 25.6653 28.3304 25.5142C28.4966 25.3631 28.6294 25.1785 28.7203 24.9723C28.8112 24.7662 28.8582 24.5431 28.8582 24.3175C28.8582 24.0919 28.8112 23.8688 28.7203 23.6626C28.6294 23.4565 28.4966 23.2719 28.3304 23.1208C28.1643 22.9697 27.9686 22.8555 27.7559 22.7855C27.5432 22.7155 27.3183 22.6914 27.0958 22.7146H25.2939Z" fill="#4583DA"/>
<path d="M17.4746 30.6689C17.0508 30.6689 16.6444 30.8387 16.3447 31.1409C16.0451 31.4431 15.8767 31.853 15.8767 32.2804C15.8767 32.7078 16.0451 33.1176 16.3447 33.4198C16.6444 33.722 17.0508 33.8918 17.4746 33.8918H19.1744C19.5982 33.8918 20.0046 33.722 20.3043 33.4198C20.6039 33.1176 20.7723 32.7078 20.7723 32.2804C20.7723 31.853 20.6039 31.4431 20.3043 31.1409C20.0046 30.8387 19.5982 30.6689 19.1744 30.6689H17.4746Z" fill="#4583DA"/>
<path d="M25.5489 30.6689C25.1251 30.6689 24.7187 30.8387 24.419 31.1409C24.1194 31.4431 23.951 31.853 23.951 32.2804C23.951 32.7078 24.1194 33.1176 24.419 33.4198C24.7187 33.722 25.1251 33.8918 25.5489 33.8918H27.0957C27.5195 33.8918 27.926 33.722 28.2256 33.4198C28.5253 33.1176 28.6936 32.7078 28.6936 32.2804C28.6936 31.853 28.5253 31.4431 28.2256 31.1409C27.926 30.8387 27.5195 30.6689 27.0957 30.6689H25.5489Z" fill="#4583DA"/>
<path d="M15.7747 8.1084C13.7349 8.24554 13.8539 11.537 15.8937 11.3313H19.2934C19.7172 11.3313 20.1236 11.1615 20.4233 10.8593C20.7229 10.5571 20.8913 10.1472 20.8913 9.71983C20.8913 9.29245 20.7229 8.88258 20.4233 8.58038C20.1236 8.27817 19.7172 8.1084 19.2934 8.1084H15.7747Z" fill="#4583DA"/>
</g>
<defs>
<clipPath id="clip0_14_432">
<rect width="35" height="42" fill="white"/>
</clipPath>
</defs>
</svg>
