<svg width="62" height="62" viewBox="0 0 62 62" fill="none" xmlns="http://www.w3.org/2000/svg">
<path d="M41.3029 30.4683C41.0457 30.2626 40.7371 30.0912 40.4629 29.9026C40.2743 29.6798 40.0343 29.5255 39.7429 29.4226C37.9086 28.3769 35.8343 27.7598 33.7771 27.7598C33.3486 27.7598 32.9543 27.9312 32.6457 28.2226L30.5543 30.3312L28.4457 28.2398C28.1543 27.9312 27.7429 27.7769 27.3143 27.7769C25.24 27.7769 23.1314 28.4112 21.2971 29.4741C21.04 29.5598 20.8343 29.7141 20.6629 29.9026C20.3714 30.0912 20.0629 30.2626 19.7886 30.4683C17.6457 32.1483 16 34.5998 16 37.4626V42.3141C16 47.6626 20.3543 51.9998 25.7029 51.9998H35.4057C40.7543 51.9998 45.1086 47.6626 45.1086 42.3141V37.4626C45.0914 34.5998 43.4457 32.1483 41.3029 30.4683ZM34.2914 31.1712C35.1486 31.2398 36.0571 31.4112 36.9314 31.7369L35.08 34.8398L32.8514 32.6112L34.2914 31.1712ZM28.2743 32.6112L26.0457 34.8398L24.1943 31.7369C25.0686 31.4283 25.9771 31.2398 26.8343 31.1712L28.2743 32.6112ZM41.8686 42.3141C41.8686 45.9141 39.0057 48.7598 35.4057 48.7598H25.7029C22.0857 48.7598 19.24 45.9141 19.24 42.3141V37.4626C19.24 35.9883 20.08 34.5655 21.4171 33.3826L24.3314 38.2855C24.8629 39.1941 26.1143 39.3483 26.8686 38.6112L30.5543 34.8912L34.2571 38.5941C35.0114 39.3312 36.2457 39.1769 36.7943 38.2683L39.7086 33.3655C41.0457 34.5483 41.8857 35.9712 41.8857 37.4455V42.3141H41.8686Z" fill="#F160E3"/>
<path d="M30.555 24.5371C34.5493 24.5371 37.8407 21.2629 37.8407 17.2686C37.8407 13.2743 34.5664 10 30.555 10C26.5607 10 23.2864 13.2743 23.2864 17.2686C23.2864 21.2629 26.5436 24.5371 30.555 24.5371ZM30.555 13.2229C32.8007 13.2229 34.6007 15.0229 34.6007 17.2686C34.6007 19.5143 32.8007 21.3143 30.555 21.3143C28.3093 21.3143 26.5264 19.5143 26.5264 17.2686C26.5264 15.0229 28.2922 13.2229 30.555 13.2229Z" fill="#F160E3"/>
<path d="M37.0162 40.6855H35.4047C33.2447 40.6855 33.2447 43.9255 35.4047 43.9255H37.0162C39.159 43.9255 39.159 40.6855 37.0162 40.6855Z" fill="#F160E3"/>
</svg>
