<svg width="62" height="62" viewBox="0 0 62 62" fill="none" xmlns="http://www.w3.org/2000/svg">
<g clip-path="url(#clip0_14_424)">
<path d="M18.5568 37.8434C18.1303 37.9032 17.7416 38.1203 17.4669 38.4521C17.1922 38.7838 17.0513 39.2062 17.072 39.6364C17.0928 40.0666 17.2735 40.4735 17.5788 40.7773C17.8841 41.0812 18.2919 41.2599 18.7222 41.2785H44.4397C44.8646 41.2345 45.2581 41.0346 45.5442 40.7174C45.8303 40.4001 45.9886 39.9881 45.9886 39.561C45.9886 39.1338 45.8303 38.7218 45.5442 38.4046C45.2581 38.0873 44.8646 37.8874 44.4397 37.8434H18.5568ZM11.8519 30.9915C11.5096 30.9915 11.175 31.0933 10.8907 31.2838C10.6063 31.4744 10.385 31.7452 10.2549 32.0618C10.1248 32.3784 10.0917 32.7265 10.1598 33.0619C10.2279 33.3974 10.3942 33.705 10.6375 33.9458C10.8809 34.1865 11.1903 34.3495 11.5264 34.414C11.8626 34.4786 12.2103 34.4417 12.5255 34.3082C12.8407 34.1747 13.1091 33.9505 13.2966 33.6642C13.4841 33.3778 13.5823 33.0422 13.5786 32.6999C13.5787 32.474 13.5339 32.2503 13.4469 32.0418C13.3599 31.8334 13.2324 31.6442 13.0718 31.4853C12.9112 31.3265 12.7207 31.201 12.5113 31.1162C12.3019 31.0315 12.0778 30.9891 11.8519 30.9915ZM30.5522 30.9915C30.3124 30.9811 30.0731 31.0209 29.8495 31.1082C29.6259 31.1955 29.423 31.3285 29.2536 31.4986C29.0843 31.6687 28.9523 31.8723 28.8661 32.0963C28.7799 32.3204 28.7413 32.5599 28.7528 32.7997C28.7644 33.0394 28.8258 33.2741 28.9331 33.4888C29.0405 33.7035 29.1914 33.8935 29.3763 34.0466C29.5611 34.1997 29.7759 34.3125 30.0069 34.378C30.2378 34.4434 30.4799 34.46 30.7176 34.4266H34.9977C35.4226 34.3826 35.8161 34.1827 36.1022 33.8655C36.3883 33.5482 36.5466 33.1362 36.5466 32.7091C36.5466 32.2819 36.3883 31.8699 36.1022 31.5527C35.8161 31.2354 35.4226 31.0355 34.9977 30.9915H30.5522ZM18.5568 30.9915C18.317 30.9811 18.0777 31.0209 17.8541 31.1082C17.6305 31.1955 17.4276 31.3285 17.2582 31.4986C17.0889 31.6687 16.9569 31.8723 16.8707 32.0963C16.7845 32.3204 16.7459 32.5599 16.7574 32.7997C16.769 33.0394 16.8304 33.2741 16.9377 33.4888C17.0451 33.7035 17.196 33.8935 17.3809 34.0466C17.5657 34.1997 17.7805 34.3125 18.0115 34.378C18.2424 34.4434 18.4845 34.46 18.7222 34.4266H23.8657C24.2906 34.3826 24.6841 34.1827 24.9701 33.8655C25.2562 33.5482 25.4146 33.1362 25.4146 32.7091C25.4146 32.2819 25.2562 31.8699 24.9701 31.5527C24.6841 31.2354 24.2906 31.0355 23.8657 30.9915H18.5568ZM10.1435 29.2648H51.2916C51.5182 29.2622 51.743 29.3053 51.9526 29.3914C52.1622 29.4776 52.3524 29.605 52.5118 29.766C52.6712 29.9271 52.7965 30.1187 52.8804 30.3292C52.9643 30.5397 53.0049 30.7649 53 30.9915V42.9869C53.0049 43.2135 52.9643 43.4387 52.8804 43.6492C52.7965 43.8598 52.6712 44.0513 52.5118 44.2124C52.3524 44.3735 52.1622 44.5009 51.9526 44.587C51.743 44.6731 51.5182 44.7162 51.2916 44.7137H22.7084C22.3008 44.5844 21.8596 44.6128 21.4719 44.793C21.0842 44.9733 20.7781 45.2924 20.6142 45.6873L18.7222 49.3612L16.8117 45.6873C16.6512 45.3855 16.4097 45.1346 16.1144 44.9626C15.8191 44.7906 15.4817 44.7044 15.1401 44.7137H14.9564H10.1435C9.91691 44.7162 9.69212 44.6731 9.4825 44.587C9.27289 44.5009 9.08273 44.3735 8.92335 44.2124C8.76397 44.0513 8.63861 43.8598 8.55474 43.6492C8.47087 43.4387 8.43019 43.2135 8.43513 42.9869V30.9915C8.43019 30.7649 8.47087 30.5397 8.55474 30.3292C8.63861 30.1187 8.76397 29.9271 8.92335 29.766C9.08273 29.605 9.27289 29.4776 9.4825 29.3914C9.69212 29.3053 9.91691 29.2622 10.1435 29.2648ZM10.1435 25.848C8.78234 25.8576 7.47965 26.4026 6.51713 27.3651C5.55461 28.3276 5.00962 29.6303 5 30.9915V42.9869C5.0048 44.3513 5.54767 45.6587 6.51071 46.6251C7.47374 47.5916 8.77918 48.1391 10.1435 48.1488H14.1848L17.1424 54.0455C17.2878 54.3268 17.5078 54.5627 17.7784 54.7274C18.0489 54.8921 18.3595 54.9792 18.6762 54.9792C18.9929 54.9792 19.3036 54.8921 19.5741 54.7274C19.8446 54.5627 20.0646 54.3268 20.2101 54.0455L23.1676 48.1488H51.2916C52.6575 48.1439 53.9657 47.5979 54.9298 46.6304C55.8938 45.6629 56.4351 44.3528 56.4351 42.9869V30.9915C56.4303 29.632 55.8894 28.3293 54.9298 27.3663C53.9702 26.4032 52.6694 25.8577 51.31 25.848H10.1435ZM48.4076 12.6218L48.8117 13.4484C48.9344 13.7005 49.1178 13.9181 49.3455 14.0817C49.5731 14.2452 49.8379 14.3496 50.116 14.3853L51.0344 14.5323L50.3548 15.1752C50.1578 15.3684 50.0099 15.606 49.9236 15.868C49.8373 16.1301 49.8151 16.4091 49.8588 16.6815L50.0057 17.6L49.1975 17.1775C48.9483 17.0571 48.6751 16.9946 48.3984 16.9946C48.1217 16.9946 47.8485 17.0571 47.5993 17.1775L46.791 17.6184L46.938 16.6999C46.9783 16.4262 46.9563 16.1469 46.8736 15.8829C46.7909 15.6189 46.6497 15.377 46.4604 15.1752L45.7807 14.4588L46.6992 14.3486C46.9767 14.3113 47.2408 14.2063 47.4683 14.0429C47.6957 13.8796 47.8795 13.6628 48.0034 13.4117L48.4076 12.6218ZM30.7176 12.6218L31.1217 13.4484C31.2443 13.7005 31.4278 13.9181 31.6554 14.0817C31.8831 14.2452 32.1479 14.3496 32.4259 14.3853L33.3261 14.5323L32.6648 15.1752C32.4677 15.3684 32.3199 15.606 32.2336 15.868C32.1473 16.1301 32.1251 16.4091 32.1688 16.6815L32.3157 17.6L31.4891 17.1775C31.2452 17.0503 30.9742 16.9839 30.6992 16.9839C30.4242 16.9839 30.1532 17.0503 29.9093 17.1775L29.0643 17.6184L29.2296 16.6999C29.2819 16.4261 29.2657 16.1436 29.1824 15.8775C29.099 15.6115 28.9512 15.3702 28.752 15.1752L28.0907 14.4588L29.0092 14.3486C29.2833 14.3014 29.5432 14.1925 29.7691 14.0302C29.995 13.8679 30.1812 13.6564 30.3134 13.4117L30.7176 12.6218ZM13.0276 12.6218L13.4317 13.4668C13.5503 13.72 13.7298 13.9397 13.9543 14.1065C14.1787 14.2732 14.4409 14.3816 14.7176 14.422L15.6361 14.5506L14.9747 15.1936C14.7704 15.3859 14.6165 15.6256 14.5268 15.8916C14.4371 16.1575 14.4143 16.4414 14.4604 16.7183L14.6073 17.6184L13.7991 17.1959C13.5552 17.0687 13.2842 17.0023 13.0092 17.0023C12.7341 17.0023 12.4632 17.0687 12.2193 17.1959L11.3743 17.6367L11.5396 16.7183C11.58 16.4446 11.558 16.1653 11.4752 15.9013C11.3925 15.6373 11.2513 15.3953 11.062 15.1936L10.3823 14.4588L11.3192 14.3486C11.59 14.2988 11.8462 14.1887 12.0688 14.0266C12.2914 13.8644 12.4746 13.6543 12.6051 13.4117L13.0276 12.6218ZM48.4443 7.1109C48.1249 7.10523 47.8103 7.19023 47.5372 7.35605C47.2641 7.52187 47.0436 7.76171 46.9013 8.04776L45.4133 11.0788L41.9414 11.5747C41.6252 11.6119 41.3257 11.7368 41.0766 11.9352C40.8276 12.1335 40.6389 12.3976 40.532 12.6975C40.425 12.9974 40.404 13.3212 40.4712 13.6324C40.5385 13.9436 40.6914 14.2299 40.9127 14.4588L43.411 16.9203L42.8048 20.3555C42.75 20.6709 42.7839 20.9953 42.9028 21.2926C43.0218 21.5898 43.221 21.8482 43.4782 22.0388C43.7355 22.2293 44.0407 22.3446 44.3597 22.3717C44.6787 22.3989 44.999 22.3368 45.2847 22.1924L48.3892 20.5575L51.2916 22.1006C51.5977 22.2537 51.9405 22.3183 52.2813 22.287C52.6221 22.2557 52.9474 22.1298 53.2206 21.9236C53.4937 21.7173 53.7037 21.4388 53.827 21.1196C53.9504 20.8003 53.982 20.4529 53.9185 20.1166L53.3858 16.9571L55.9024 14.5323C56.138 14.3115 56.3062 14.0285 56.3875 13.716C56.4688 13.4036 56.4599 13.0745 56.3619 12.7669C56.2638 12.4593 56.0806 12.1858 55.8335 11.9781C55.5864 11.7703 55.2854 11.6368 54.9656 11.5931L51.4937 11.0788L49.969 7.93754C49.828 7.65433 49.6104 7.41637 49.3408 7.25075C49.0713 7.08513 48.7607 6.99849 48.4443 7.00069V7.1109ZM30.7176 7.00069C30.3977 6.99278 30.0822 7.07685 29.8087 7.24292C29.5352 7.40899 29.3151 7.65007 29.1745 7.93754L27.5947 11.0788L24.1412 11.5747C23.8341 11.6288 23.5477 11.7658 23.3129 11.971C23.0781 12.1762 22.904 12.4418 22.8094 12.7389C22.7148 13.036 22.7033 13.3533 22.7761 13.6565C22.849 13.9597 23.0034 14.2371 23.2227 14.4588L25.721 16.9203L25.0964 20.3555C25.0416 20.6709 25.0755 20.9953 25.1945 21.2926C25.3134 21.5898 25.5126 21.8482 25.7699 22.0388C26.0271 22.2293 26.3323 22.3446 26.6513 22.3717C26.9703 22.3989 27.2906 22.3368 27.5763 22.1924L30.7176 20.5759L33.6383 22.1189C33.9416 22.2607 34.2777 22.3169 34.6106 22.2816C34.9434 22.2462 35.2603 22.1206 35.5269 21.9182C35.7935 21.7159 35.9998 21.4445 36.1234 21.1335C36.2471 20.8225 36.2834 20.4836 36.2285 20.1534L35.6958 16.9754L38.2124 14.5506C38.448 14.3299 38.6161 14.0469 38.6975 13.7344C38.7788 13.422 38.7699 13.0929 38.6719 12.7853C38.5738 12.4777 38.3906 12.2042 38.1435 11.9964C37.8964 11.7887 37.5954 11.6552 37.2755 11.6115L33.8037 11.0971L32.2606 7.95591C32.1227 7.66501 31.9037 7.42012 31.63 7.25067C31.3563 7.08122 31.0394 6.99442 30.7176 7.00069ZM13.0276 7.00069C12.705 6.99149 12.3866 7.07482 12.1099 7.24084C11.8332 7.40685 11.6098 7.64861 11.4661 7.93754L9.95982 11.0788L6.48794 11.5747C6.17631 11.6205 5.8834 11.7516 5.64159 11.9535C5.39978 12.1553 5.21849 12.4201 5.11774 12.7185C5.017 13.017 5.00072 13.3375 5.07071 13.6446C5.1407 13.9517 5.29424 14.2335 5.51435 14.4588L8.01263 16.9387L7.4248 20.3738C7.36996 20.6892 7.4039 21.0137 7.52282 21.311C7.64174 21.6082 7.84096 21.8666 8.09822 22.0571C8.35549 22.2477 8.66067 22.363 8.97968 22.3901C9.29868 22.4173 9.61895 22.3552 9.90471 22.2108L13.0092 20.5759L15.8932 22.1189C16.1978 22.2704 16.5384 22.3344 16.8772 22.3037C17.216 22.273 17.5395 22.1488 17.8119 21.945C18.0842 21.7412 18.2947 21.4658 18.4197 21.1495C18.5447 20.8332 18.5795 20.4883 18.5201 20.1534L17.9874 16.9754L20.504 14.5506C20.7396 14.3299 20.9078 14.0469 20.9891 13.7344C21.0704 13.422 21.0615 13.0929 20.9635 12.7853C20.8654 12.4777 20.6822 12.2042 20.4351 11.9964C20.188 11.7887 19.887 11.6552 19.5672 11.6115L16.1137 11.0971L14.589 7.95591C14.4489 7.67062 14.2319 7.43007 13.9626 7.26132C13.6932 7.09257 13.3821 7.00231 13.0643 7.00069H13.0276Z" fill="#FB0000"/>
</g>
<defs>
<clipPath id="clip0_14_424">
<rect width="51.4351" height="48" fill="white" transform="translate(5 7)"/>
</clipPath>
</defs>
</svg>
