<svg width="254" height="292" viewBox="0 0 254 292" fill="none" xmlns="http://www.w3.org/2000/svg">
<g filter="url(#filter0_i_59_6)">
<rect width="254" height="292" rx="20" fill="#FFBB12"/>
<path d="M96.224 127.424C96.288 125.712 96.848 124.392 97.904 123.464C98.96 122.536 100.392 122.072 102.2 122.072C103.4 122.072 104.424 122.28 105.272 122.696C106.136 123.112 106.784 123.68 107.216 124.4C107.664 125.12 107.888 125.928 107.888 126.824C107.888 127.88 107.624 128.744 107.096 129.416C106.568 130.072 105.952 130.52 105.248 130.76V130.856C106.16 131.16 106.88 131.664 107.408 132.368C107.936 133.072 108.2 133.976 108.2 135.08C108.2 136.072 107.968 136.952 107.504 137.72C107.056 138.472 106.392 139.064 105.512 139.496C104.648 139.928 103.616 140.144 102.416 140.144C100.496 140.144 98.96 139.672 97.808 138.728C96.672 137.784 96.072 136.36 96.008 134.456H99.992C100.008 135.16 100.208 135.72 100.592 136.136C100.976 136.536 101.536 136.736 102.272 136.736C102.896 136.736 103.376 136.56 103.712 136.208C104.064 135.84 104.24 135.36 104.24 134.768C104.24 134 103.992 133.448 103.496 133.112C103.016 132.76 102.24 132.584 101.168 132.584H100.4V129.248H101.168C101.984 129.248 102.64 129.112 103.136 128.84C103.648 128.552 103.904 128.048 103.904 127.328C103.904 126.752 103.744 126.304 103.424 125.984C103.104 125.664 102.664 125.504 102.104 125.504C101.496 125.504 101.04 125.688 100.736 126.056C100.448 126.424 100.28 126.88 100.232 127.424H96.224ZM111.207 136.88V133.568L118.791 122.72H123.375V133.328H125.343V136.88H123.375V140H119.271V136.88H111.207ZM119.559 127.232L115.527 133.328H119.559V127.232ZM136.517 127.208C136.389 126.616 136.165 126.176 135.845 125.888C135.525 125.584 135.069 125.432 134.477 125.432C133.565 125.432 132.909 125.832 132.509 126.632C132.109 127.416 131.901 128.664 131.885 130.376C132.237 129.816 132.741 129.376 133.397 129.056C134.069 128.736 134.805 128.576 135.605 128.576C137.173 128.576 138.429 129.072 139.373 130.064C140.333 131.056 140.813 132.44 140.813 134.216C140.813 135.384 140.573 136.408 140.093 137.288C139.629 138.168 138.941 138.856 138.029 139.352C137.133 139.848 136.069 140.096 134.837 140.096C132.373 140.096 130.661 139.328 129.701 137.792C128.741 136.24 128.261 134.016 128.261 131.12C128.261 128.08 128.765 125.824 129.773 124.352C130.797 122.864 132.429 122.12 134.669 122.12C135.869 122.12 136.877 122.36 137.693 122.84C138.525 123.304 139.149 123.92 139.565 124.688C139.997 125.456 140.253 126.296 140.333 127.208H136.517ZM134.621 131.816C133.933 131.816 133.357 132.024 132.893 132.44C132.445 132.84 132.221 133.416 132.221 134.168C132.221 134.936 132.429 135.536 132.845 135.968C133.277 136.4 133.885 136.616 134.669 136.616C135.373 136.616 135.925 136.408 136.325 135.992C136.741 135.56 136.949 134.976 136.949 134.24C136.949 133.488 136.749 132.896 136.349 132.464C135.949 132.032 135.373 131.816 134.621 131.816ZM146.515 130.592C145.011 129.792 144.259 128.536 144.259 126.824C144.259 125.96 144.483 125.176 144.931 124.472C145.379 123.752 146.059 123.184 146.971 122.768C147.883 122.336 149.003 122.12 150.331 122.12C151.659 122.12 152.771 122.336 153.667 122.768C154.579 123.184 155.259 123.752 155.707 124.472C156.155 125.176 156.379 125.96 156.379 126.824C156.379 127.688 156.171 128.44 155.755 129.08C155.355 129.72 154.811 130.224 154.123 130.592C154.987 131.008 155.651 131.584 156.115 132.32C156.579 133.04 156.811 133.888 156.811 134.864C156.811 136 156.523 136.984 155.947 137.816C155.371 138.632 154.587 139.256 153.595 139.688C152.619 140.12 151.531 140.336 150.331 140.336C149.131 140.336 148.035 140.12 147.043 139.688C146.067 139.256 145.291 138.632 144.715 137.816C144.139 136.984 143.851 136 143.851 134.864C143.851 133.872 144.083 133.016 144.547 132.296C145.011 131.56 145.667 130.992 146.515 130.592ZM152.395 127.448C152.395 126.792 152.203 126.288 151.819 125.936C151.451 125.568 150.955 125.384 150.331 125.384C149.707 125.384 149.203 125.568 148.819 125.936C148.451 126.304 148.267 126.816 148.267 127.472C148.267 128.096 148.459 128.592 148.843 128.96C149.227 129.312 149.723 129.488 150.331 129.488C150.939 129.488 151.435 129.304 151.819 128.936C152.203 128.568 152.395 128.072 152.395 127.448ZM150.331 132.368C149.579 132.368 148.971 132.576 148.507 132.992C148.043 133.392 147.811 133.952 147.811 134.672C147.811 135.344 148.035 135.896 148.483 136.328C148.947 136.76 149.563 136.976 150.331 136.976C151.099 136.976 151.699 136.76 152.131 136.328C152.579 135.896 152.803 135.344 152.803 134.672C152.803 133.968 152.571 133.408 152.107 132.992C151.659 132.576 151.067 132.368 150.331 132.368Z" fill="#1BB55C"/>
<path d="M69.108 167.454V168.786H65.688V180H64.05V168.786H60.612V167.454H69.108ZM75.9263 180.162C75.0023 180.162 74.1623 179.952 73.4063 179.532C72.6623 179.112 72.0743 178.518 71.6423 177.75C71.2223 176.97 71.0123 176.07 71.0123 175.05C71.0123 174.042 71.2283 173.154 71.6603 172.386C72.1043 171.606 72.7043 171.012 73.4603 170.604C74.2163 170.184 75.0623 169.974 75.9983 169.974C76.9343 169.974 77.7803 170.184 78.5363 170.604C79.2923 171.012 79.8863 171.6 80.3183 172.368C80.7623 173.136 80.9843 174.03 80.9843 175.05C80.9843 176.07 80.7563 176.97 80.3003 177.75C79.8563 178.518 79.2503 179.112 78.4823 179.532C77.7143 179.952 76.8623 180.162 75.9263 180.162ZM75.9263 178.722C76.5143 178.722 77.0663 178.584 77.5823 178.308C78.0983 178.032 78.5123 177.618 78.8243 177.066C79.1483 176.514 79.3103 175.842 79.3103 175.05C79.3103 174.258 79.1543 173.586 78.8423 173.034C78.5303 172.482 78.1223 172.074 77.6183 171.81C77.1143 171.534 76.5683 171.396 75.9803 171.396C75.3803 171.396 74.8283 171.534 74.3243 171.81C73.8323 172.074 73.4363 172.482 73.1363 173.034C72.8363 173.586 72.6863 174.258 72.6863 175.05C72.6863 175.854 72.8303 176.532 73.1183 177.084C73.4183 177.636 73.8143 178.05 74.3063 178.326C74.7983 178.59 75.3383 178.722 75.9263 178.722ZM85.636 171.486V177.3C85.636 177.78 85.738 178.122 85.942 178.326C86.146 178.518 86.5 178.614 87.004 178.614H88.21V180H86.734C85.822 180 85.138 179.79 84.682 179.37C84.226 178.95 83.998 178.26 83.998 177.3V171.486H82.72V170.136H83.998V167.652H85.636V170.136H88.21V171.486H85.636ZM90.0826 175.032C90.0826 174.024 90.2866 173.142 90.6946 172.386C91.1026 171.618 91.6606 171.024 92.3686 170.604C93.0886 170.184 93.8866 169.974 94.7626 169.974C95.6266 169.974 96.3766 170.16 97.0126 170.532C97.6486 170.904 98.1226 171.372 98.4346 171.936V170.136H100.091V180H98.4346V178.164C98.1106 178.74 97.6246 179.22 96.9766 179.604C96.3406 179.976 95.5966 180.162 94.7446 180.162C93.8686 180.162 93.0766 179.946 92.3686 179.514C91.6606 179.082 91.1026 178.476 90.6946 177.696C90.2866 176.916 90.0826 176.028 90.0826 175.032ZM98.4346 175.05C98.4346 174.306 98.2846 173.658 97.9846 173.106C97.6846 172.554 97.2766 172.134 96.7606 171.846C96.2566 171.546 95.6986 171.396 95.0866 171.396C94.4746 171.396 93.9166 171.54 93.4126 171.828C92.9086 172.116 92.5066 172.536 92.2066 173.088C91.9066 173.64 91.7566 174.288 91.7566 175.032C91.7566 175.788 91.9066 176.448 92.2066 177.012C92.5066 177.564 92.9086 177.99 93.4126 178.29C93.9166 178.578 94.4746 178.722 95.0866 178.722C95.6986 178.722 96.2566 178.578 96.7606 178.29C97.2766 177.99 97.6846 177.564 97.9846 177.012C98.2846 176.448 98.4346 175.794 98.4346 175.05ZM104.997 166.68V180H103.359V166.68H104.997ZM117.079 180.162C116.323 180.162 115.645 180.036 115.045 179.784C114.445 179.52 113.971 179.16 113.623 178.704C113.275 178.236 113.083 177.702 113.047 177.102H114.739C114.787 177.594 115.015 177.996 115.423 178.308C115.843 178.62 116.389 178.776 117.061 178.776C117.685 178.776 118.177 178.638 118.537 178.362C118.897 178.086 119.077 177.738 119.077 177.318C119.077 176.886 118.885 176.568 118.501 176.364C118.117 176.148 117.523 175.938 116.719 175.734C115.987 175.542 115.387 175.35 114.919 175.158C114.463 174.954 114.067 174.66 113.731 174.276C113.407 173.88 113.245 173.364 113.245 172.728C113.245 172.224 113.395 171.762 113.695 171.342C113.995 170.922 114.421 170.592 114.973 170.352C115.525 170.1 116.155 169.974 116.863 169.974C117.955 169.974 118.837 170.25 119.509 170.802C120.181 171.354 120.541 172.11 120.589 173.07H118.951C118.915 172.554 118.705 172.14 118.321 171.828C117.949 171.516 117.445 171.36 116.809 171.36C116.221 171.36 115.753 171.486 115.405 171.738C115.057 171.99 114.883 172.32 114.883 172.728C114.883 173.052 114.985 173.322 115.189 173.538C115.405 173.742 115.669 173.91 115.981 174.042C116.305 174.162 116.749 174.3 117.313 174.456C118.021 174.648 118.597 174.84 119.041 175.032C119.485 175.212 119.863 175.488 120.175 175.86C120.499 176.232 120.667 176.718 120.679 177.318C120.679 177.858 120.529 178.344 120.229 178.776C119.929 179.208 119.503 179.55 118.951 179.802C118.411 180.042 117.787 180.162 117.079 180.162ZM125.489 171.486V177.3C125.489 177.78 125.591 178.122 125.795 178.326C125.999 178.518 126.353 178.614 126.857 178.614H128.063V180H126.587C125.675 180 124.991 179.79 124.535 179.37C124.079 178.95 123.851 178.26 123.851 177.3V171.486H122.573V170.136H123.851V167.652H125.489V170.136H128.063V171.486H125.489ZM139.296 170.136V180H137.658V178.542C137.346 179.046 136.908 179.442 136.344 179.73C135.792 180.006 135.18 180.144 134.508 180.144C133.74 180.144 133.05 179.988 132.438 179.676C131.826 179.352 131.34 178.872 130.98 178.236C130.632 177.6 130.458 176.826 130.458 175.914V170.136H132.078V175.698C132.078 176.67 132.324 177.42 132.816 177.948C133.308 178.464 133.98 178.722 134.832 178.722C135.708 178.722 136.398 178.452 136.902 177.912C137.406 177.372 137.658 176.586 137.658 175.554V170.136H139.296ZM141.95 175.032C141.95 174.024 142.154 173.142 142.562 172.386C142.97 171.618 143.528 171.024 144.236 170.604C144.956 170.184 145.76 169.974 146.648 169.974C147.416 169.974 148.13 170.154 148.79 170.514C149.45 170.862 149.954 171.324 150.302 171.9V166.68H151.958V180H150.302V178.146C149.978 178.734 149.498 179.22 148.862 179.604C148.226 179.976 147.482 180.162 146.63 180.162C145.754 180.162 144.956 179.946 144.236 179.514C143.528 179.082 142.97 178.476 142.562 177.696C142.154 176.916 141.95 176.028 141.95 175.032ZM150.302 175.05C150.302 174.306 150.152 173.658 149.852 173.106C149.552 172.554 149.144 172.134 148.628 171.846C148.124 171.546 147.566 171.396 146.954 171.396C146.342 171.396 145.784 171.54 145.28 171.828C144.776 172.116 144.374 172.536 144.074 173.088C143.774 173.64 143.624 174.288 143.624 175.032C143.624 175.788 143.774 176.448 144.074 177.012C144.374 177.564 144.776 177.99 145.28 178.29C145.784 178.578 146.342 178.722 146.954 178.722C147.566 178.722 148.124 178.578 148.628 178.29C149.144 177.99 149.552 177.564 149.852 177.012C150.152 176.448 150.302 175.794 150.302 175.05ZM164.226 174.69C164.226 175.002 164.208 175.332 164.172 175.68H156.288C156.348 176.652 156.678 177.414 157.278 177.966C157.89 178.506 158.628 178.776 159.492 178.776C160.2 178.776 160.788 178.614 161.256 178.29C161.736 177.954 162.072 177.51 162.264 176.958H164.028C163.764 177.906 163.236 178.68 162.444 179.28C161.652 179.868 160.668 180.162 159.492 180.162C158.556 180.162 157.716 179.952 156.972 179.532C156.24 179.112 155.664 178.518 155.244 177.75C154.824 176.97 154.614 176.07 154.614 175.05C154.614 174.03 154.818 173.136 155.226 172.368C155.634 171.6 156.204 171.012 156.936 170.604C157.68 170.184 158.532 169.974 159.492 169.974C160.428 169.974 161.256 170.178 161.976 170.586C162.696 170.994 163.248 171.558 163.632 172.278C164.028 172.986 164.226 173.79 164.226 174.69ZM162.534 174.348C162.534 173.724 162.396 173.19 162.12 172.746C161.844 172.29 161.466 171.948 160.986 171.72C160.518 171.48 159.996 171.36 159.42 171.36C158.592 171.36 157.884 171.624 157.296 172.152C156.72 172.68 156.39 173.412 156.306 174.348H162.534ZM171.694 169.956C172.894 169.956 173.866 170.322 174.61 171.054C175.354 171.774 175.726 172.818 175.726 174.186V180H174.106V174.42C174.106 173.436 173.86 172.686 173.368 172.17C172.876 171.642 172.204 171.378 171.352 171.378C170.488 171.378 169.798 171.648 169.282 172.188C168.778 172.728 168.526 173.514 168.526 174.546V180H166.888V170.136H168.526V171.54C168.85 171.036 169.288 170.646 169.84 170.37C170.404 170.094 171.022 169.956 171.694 169.956ZM180.9 171.486V177.3C180.9 177.78 181.002 178.122 181.206 178.326C181.41 178.518 181.764 178.614 182.268 178.614H183.474V180H181.998C181.086 180 180.402 179.79 179.946 179.37C179.49 178.95 179.262 178.26 179.262 177.3V171.486H177.984V170.136H179.262V167.652H180.9V170.136H183.474V171.486H180.9ZM189.45 180.162C188.694 180.162 188.016 180.036 187.416 179.784C186.816 179.52 186.342 179.16 185.994 178.704C185.646 178.236 185.454 177.702 185.418 177.102H187.11C187.158 177.594 187.386 177.996 187.794 178.308C188.214 178.62 188.76 178.776 189.432 178.776C190.056 178.776 190.548 178.638 190.908 178.362C191.268 178.086 191.448 177.738 191.448 177.318C191.448 176.886 191.256 176.568 190.872 176.364C190.488 176.148 189.894 175.938 189.09 175.734C188.358 175.542 187.758 175.35 187.29 175.158C186.834 174.954 186.438 174.66 186.102 174.276C185.778 173.88 185.616 173.364 185.616 172.728C185.616 172.224 185.766 171.762 186.066 171.342C186.366 170.922 186.792 170.592 187.344 170.352C187.896 170.1 188.526 169.974 189.234 169.974C190.326 169.974 191.208 170.25 191.88 170.802C192.552 171.354 192.912 172.11 192.96 173.07H191.322C191.286 172.554 191.076 172.14 190.692 171.828C190.32 171.516 189.816 171.36 189.18 171.36C188.592 171.36 188.124 171.486 187.776 171.738C187.428 171.99 187.254 172.32 187.254 172.728C187.254 173.052 187.356 173.322 187.56 173.538C187.776 173.742 188.04 173.91 188.352 174.042C188.676 174.162 189.12 174.3 189.684 174.456C190.392 174.648 190.968 174.84 191.412 175.032C191.856 175.212 192.234 175.488 192.546 175.86C192.87 176.232 193.038 176.718 193.05 177.318C193.05 177.858 192.9 178.344 192.6 178.776C192.3 179.208 191.874 179.55 191.322 179.802C190.782 180.042 190.158 180.162 189.45 180.162Z" fill="black"/>
<path d="M139.037 67.404C138.74 67.1662 138.383 66.968 138.066 66.75C137.848 66.4923 137.57 66.3139 137.233 66.195C135.112 64.986 132.714 64.2725 130.336 64.2725C129.84 64.2725 129.385 64.4707 129.028 64.8076L126.61 67.2455L124.172 64.8274C123.835 64.4707 123.359 64.2923 122.864 64.2923C120.466 64.2923 118.028 65.0256 115.907 66.2545C115.61 66.3536 115.372 66.5319 115.174 66.75C114.837 66.968 114.48 67.1662 114.163 67.404C111.685 69.3464 109.783 72.1806 109.783 75.4905V81.0996C109.783 87.2834 114.817 92.2978 121.001 92.2978H132.219C138.403 92.2978 143.437 87.2834 143.437 81.0996V75.4905C143.417 72.1806 141.514 69.3464 139.037 67.404ZM130.93 68.2166C131.921 68.2959 132.972 68.4941 133.983 68.8707L131.842 72.4581L129.266 69.8815L130.93 68.2166ZM123.974 69.8815L121.397 72.4581L119.257 68.8707C120.267 68.5139 121.318 68.2959 122.309 68.2166L123.974 69.8815ZM139.691 81.0996C139.691 85.2618 136.381 88.5519 132.219 88.5519H121.001C116.819 88.5519 113.529 85.2618 113.529 81.0996V75.4905C113.529 73.786 114.5 72.141 116.046 70.7734L119.415 76.4419C120.029 77.4924 121.476 77.6707 122.348 76.8185L126.61 72.5176L130.891 76.7987C131.763 77.6509 133.19 77.4725 133.824 76.4221L137.194 70.7536C138.74 72.1212 139.711 73.7662 139.711 75.4707V81.0996H139.691Z" fill="#F160E3"/>
<path d="M126.61 60.5466C131.228 60.5466 135.033 56.7609 135.033 52.1429C135.033 47.5249 131.248 43.7393 126.61 43.7393C121.992 43.7393 118.206 47.5249 118.206 52.1429C118.206 56.7609 121.972 60.5466 126.61 60.5466ZM126.61 47.4654C129.206 47.4654 131.287 49.5465 131.287 52.1429C131.287 54.7393 129.206 56.8204 126.61 56.8204C124.013 56.8204 121.952 54.7393 121.952 52.1429C121.952 49.5465 123.993 47.4654 126.61 47.4654Z" fill="#F160E3"/>
<path d="M134.082 79.2168H132.219C129.721 79.2168 129.721 82.9628 132.219 82.9628H134.082C136.559 82.9628 136.559 79.2168 134.082 79.2168Z" fill="#F160E3"/>
<g filter="url(#filter1_i_59_6)">
<rect x="53" y="210" width="148" height="48" rx="24" fill="#0E4DA4"/>
<path d="M93.47 231.07C93.1993 230.501 92.8073 230.062 92.294 229.754C91.7807 229.437 91.1833 229.278 90.502 229.278C89.8207 229.278 89.2047 229.437 88.654 229.754C88.1127 230.062 87.6833 230.51 87.366 231.098C87.058 231.677 86.904 232.349 86.904 233.114C86.904 233.879 87.058 234.551 87.366 235.13C87.6833 235.709 88.1127 236.157 88.654 236.474C89.2047 236.782 89.8207 236.936 90.502 236.936C91.454 236.936 92.238 236.651 92.854 236.082C93.47 235.513 93.8293 234.743 93.932 233.772H90.04V232.736H95.29V233.716C95.2153 234.519 94.9633 235.256 94.534 235.928C94.1047 236.591 93.54 237.118 92.84 237.51C92.14 237.893 91.3607 238.084 90.502 238.084C89.5967 238.084 88.7707 237.874 88.024 237.454C87.2773 237.025 86.6847 236.432 86.246 235.676C85.8167 234.92 85.602 234.066 85.602 233.114C85.602 232.162 85.8167 231.308 86.246 230.552C86.6847 229.787 87.2773 229.194 88.024 228.774C88.7707 228.345 89.5967 228.13 90.502 228.13C91.538 228.13 92.4527 228.387 93.246 228.9C94.0487 229.413 94.632 230.137 94.996 231.07H93.47ZM104.474 233.87C104.474 234.113 104.46 234.369 104.432 234.64H98.3005C98.3472 235.396 98.6038 235.989 99.0705 236.418C99.5465 236.838 100.12 237.048 100.792 237.048C101.343 237.048 101.8 236.922 102.164 236.67C102.538 236.409 102.799 236.063 102.948 235.634H104.32C104.115 236.371 103.704 236.973 103.088 237.44C102.472 237.897 101.707 238.126 100.792 238.126C100.064 238.126 99.4112 237.963 98.8325 237.636C98.2632 237.309 97.8152 236.847 97.4885 236.25C97.1618 235.643 96.9985 234.943 96.9985 234.15C96.9985 233.357 97.1572 232.661 97.4745 232.064C97.7918 231.467 98.2352 231.009 98.8045 230.692C99.3832 230.365 100.046 230.202 100.792 230.202C101.52 230.202 102.164 230.361 102.724 230.678C103.284 230.995 103.714 231.434 104.012 231.994C104.32 232.545 104.474 233.17 104.474 233.87ZM103.158 233.604C103.158 233.119 103.051 232.703 102.836 232.358C102.622 232.003 102.328 231.737 101.954 231.56C101.59 231.373 101.184 231.28 100.736 231.28C100.092 231.28 99.5418 231.485 99.0845 231.896C98.6365 232.307 98.3798 232.876 98.3145 233.604H103.158ZM108.21 231.378V235.9C108.21 236.273 108.289 236.539 108.448 236.698C108.607 236.847 108.882 236.922 109.274 236.922H110.212V238H109.064C108.355 238 107.823 237.837 107.468 237.51C107.113 237.183 106.936 236.647 106.936 235.9V231.378H105.942V230.328H106.936V228.396H108.21V230.328H110.212V231.378H108.21ZM119.204 238.126C118.616 238.126 118.089 238.028 117.622 237.832C117.155 237.627 116.787 237.347 116.516 236.992C116.245 236.628 116.096 236.213 116.068 235.746H117.384C117.421 236.129 117.599 236.441 117.916 236.684C118.243 236.927 118.667 237.048 119.19 237.048C119.675 237.048 120.058 236.941 120.338 236.726C120.618 236.511 120.758 236.241 120.758 235.914C120.758 235.578 120.609 235.331 120.31 235.172C120.011 235.004 119.549 234.841 118.924 234.682C118.355 234.533 117.888 234.383 117.524 234.234C117.169 234.075 116.861 233.847 116.6 233.548C116.348 233.24 116.222 232.839 116.222 232.344C116.222 231.952 116.339 231.593 116.572 231.266C116.805 230.939 117.137 230.683 117.566 230.496C117.995 230.3 118.485 230.202 119.036 230.202C119.885 230.202 120.571 230.417 121.094 230.846C121.617 231.275 121.897 231.863 121.934 232.61H120.66C120.632 232.209 120.469 231.887 120.17 231.644C119.881 231.401 119.489 231.28 118.994 231.28C118.537 231.28 118.173 231.378 117.902 231.574C117.631 231.77 117.496 232.027 117.496 232.344C117.496 232.596 117.575 232.806 117.734 232.974C117.902 233.133 118.107 233.263 118.35 233.366C118.602 233.459 118.947 233.567 119.386 233.688C119.937 233.837 120.385 233.987 120.73 234.136C121.075 234.276 121.369 234.491 121.612 234.78C121.864 235.069 121.995 235.447 122.004 235.914C122.004 236.334 121.887 236.712 121.654 237.048C121.421 237.384 121.089 237.65 120.66 237.846C120.24 238.033 119.755 238.126 119.204 238.126ZM125.857 231.378V235.9C125.857 236.273 125.936 236.539 126.095 236.698C126.253 236.847 126.529 236.922 126.921 236.922H127.859V238H126.711C126.001 238 125.469 237.837 125.115 237.51C124.76 237.183 124.583 236.647 124.583 235.9V231.378H123.589V230.328H124.583V228.396H125.857V230.328H127.859V231.378H125.857ZM129.426 234.136C129.426 233.352 129.585 232.666 129.902 232.078C130.22 231.481 130.654 231.019 131.204 230.692C131.764 230.365 132.385 230.202 133.066 230.202C133.738 230.202 134.322 230.347 134.816 230.636C135.311 230.925 135.68 231.289 135.922 231.728V230.328H137.21V238H135.922V236.572C135.67 237.02 135.292 237.393 134.788 237.692C134.294 237.981 133.715 238.126 133.052 238.126C132.371 238.126 131.755 237.958 131.204 237.622C130.654 237.286 130.22 236.815 129.902 236.208C129.585 235.601 129.426 234.911 129.426 234.136ZM135.922 234.15C135.922 233.571 135.806 233.067 135.572 232.638C135.339 232.209 135.022 231.882 134.62 231.658C134.228 231.425 133.794 231.308 133.318 231.308C132.842 231.308 132.408 231.42 132.016 231.644C131.624 231.868 131.312 232.195 131.078 232.624C130.845 233.053 130.728 233.557 130.728 234.136C130.728 234.724 130.845 235.237 131.078 235.676C131.312 236.105 131.624 236.437 132.016 236.67C132.408 236.894 132.842 237.006 133.318 237.006C133.794 237.006 134.228 236.894 134.62 236.67C135.022 236.437 135.339 236.105 135.572 235.676C135.806 235.237 135.922 234.729 135.922 234.15ZM141.137 231.574C141.361 231.135 141.678 230.795 142.089 230.552C142.509 230.309 143.018 230.188 143.615 230.188V231.504H143.279C141.851 231.504 141.137 232.279 141.137 233.828V238H139.863V230.328H141.137V231.574ZM147.14 231.378V235.9C147.14 236.273 147.219 236.539 147.378 236.698C147.536 236.847 147.812 236.922 148.204 236.922H149.142V238H147.994C147.284 238 146.752 237.837 146.398 237.51C146.043 237.183 145.866 236.647 145.866 235.9V231.378H144.872V230.328H145.866V228.396H147.14V230.328H149.142V231.378H147.14ZM158.185 233.87C158.185 234.113 158.171 234.369 158.143 234.64H152.011C152.058 235.396 152.315 235.989 152.781 236.418C153.257 236.838 153.831 237.048 154.503 237.048C155.054 237.048 155.511 236.922 155.875 236.67C156.249 236.409 156.51 236.063 156.659 235.634H158.031C157.826 236.371 157.415 236.973 156.799 237.44C156.183 237.897 155.418 238.126 154.503 238.126C153.775 238.126 153.122 237.963 152.543 237.636C151.974 237.309 151.526 236.847 151.199 236.25C150.873 235.643 150.709 234.943 150.709 234.15C150.709 233.357 150.868 232.661 151.185 232.064C151.503 231.467 151.946 231.009 152.515 230.692C153.094 230.365 153.757 230.202 154.503 230.202C155.231 230.202 155.875 230.361 156.435 230.678C156.995 230.995 157.425 231.434 157.723 231.994C158.031 232.545 158.185 233.17 158.185 233.87ZM156.869 233.604C156.869 233.119 156.762 232.703 156.547 232.358C156.333 232.003 156.039 231.737 155.665 231.56C155.301 231.373 154.895 231.28 154.447 231.28C153.803 231.28 153.253 231.485 152.795 231.896C152.347 232.307 152.091 232.876 152.025 233.604H156.869ZM159.891 234.136C159.891 233.352 160.05 232.666 160.367 232.078C160.684 231.481 161.118 231.019 161.669 230.692C162.229 230.365 162.854 230.202 163.545 230.202C164.142 230.202 164.698 230.342 165.211 230.622C165.724 230.893 166.116 231.252 166.387 231.7V227.64H167.675V238H166.387V236.558C166.135 237.015 165.762 237.393 165.267 237.692C164.772 237.981 164.194 238.126 163.531 238.126C162.85 238.126 162.229 237.958 161.669 237.622C161.118 237.286 160.684 236.815 160.367 236.208C160.05 235.601 159.891 234.911 159.891 234.136ZM166.387 234.15C166.387 233.571 166.27 233.067 166.037 232.638C165.804 232.209 165.486 231.882 165.085 231.658C164.693 231.425 164.259 231.308 163.783 231.308C163.307 231.308 162.873 231.42 162.481 231.644C162.089 231.868 161.776 232.195 161.543 232.624C161.31 233.053 161.193 233.557 161.193 234.136C161.193 234.724 161.31 235.237 161.543 235.676C161.776 236.105 162.089 236.437 162.481 236.67C162.873 236.894 163.307 237.006 163.783 237.006C164.259 237.006 164.693 236.894 165.085 236.67C165.486 236.437 165.804 236.105 166.037 235.676C166.27 235.237 166.387 234.729 166.387 234.15Z" fill="white"/>
</g>
</g>
<defs>
<filter id="filter0_i_59_6" x="0" y="0" width="254" height="296" filterUnits="userSpaceOnUse" color-interpolation-filters="sRGB">
<feFlood flood-opacity="0" result="BackgroundImageFix"/>
<feBlend mode="normal" in="SourceGraphic" in2="BackgroundImageFix" result="shape"/>
<feColorMatrix in="SourceAlpha" type="matrix" values="0 0 0 0 0 0 0 0 0 0 0 0 0 0 0 0 0 0 127 0" result="hardAlpha"/>
<feOffset dy="4"/>
<feGaussianBlur stdDeviation="2"/>
<feComposite in2="hardAlpha" operator="arithmetic" k2="-1" k3="1"/>
<feColorMatrix type="matrix" values="0 0 0 0 0 0 0 0 0 0 0 0 0 0 0 0 0 0 0.25 0"/>
<feBlend mode="normal" in2="shape" result="effect1_innerShadow_59_6"/>
</filter>
<filter id="filter1_i_59_6" x="53" y="210" width="148" height="52" filterUnits="userSpaceOnUse" color-interpolation-filters="sRGB">
<feFlood flood-opacity="0" result="BackgroundImageFix"/>
<feBlend mode="normal" in="SourceGraphic" in2="BackgroundImageFix" result="shape"/>
<feColorMatrix in="SourceAlpha" type="matrix" values="0 0 0 0 0 0 0 0 0 0 0 0 0 0 0 0 0 0 127 0" result="hardAlpha"/>
<feOffset dy="4"/>
<feGaussianBlur stdDeviation="7.5"/>
<feComposite in2="hardAlpha" operator="arithmetic" k2="-1" k3="1"/>
<feColorMatrix type="matrix" values="0 0 0 0 0 0 0 0 0 0 0 0 0 0 0 0 0 0 0.25 0"/>
<feBlend mode="normal" in2="shape" result="effect1_innerShadow_59_6"/>
</filter>
</defs>
</svg>
